<?xml version="1.0" encoding="UTF-8" standalone="no"?>
<!-- Created with Inkscape (http://www.inkscape.org/) -->

<svg
   xmlns:dc="http://purl.org/dc/elements/1.1/"
   xmlns:cc="http://creativecommons.org/ns#"
   xmlns:rdf="http://www.w3.org/1999/02/22-rdf-syntax-ns#"
   xmlns:svg="http://www.w3.org/2000/svg"
   xmlns="http://www.w3.org/2000/svg"
   xmlns:sodipodi="http://sodipodi.sourceforge.net/DTD/sodipodi-0.dtd"
   xmlns:inkscape="http://www.inkscape.org/namespaces/inkscape"
   xmlns:xlink="http://www.w3.org/1999/xlink"
   id="svg1920"
   sodipodi:version="0.32"
   inkscape:version="0.48.5 r10040"
   width="473.23999"
   height="473.23901"
   version="1.0"
   sodipodi:docname="Memory document 2"
   inkscape:output_extension="org.inkscape.output.svg.inkscape"
   sodipodi:modified="true">
  <metadata
     id="metadata1925">
    <rdf:RDF>
      <cc:Work
         rdf:about="">
        <dc:format>image/svg+xml</dc:format>
        <dc:type
           rdf:resource="http://purl.org/dc/dcmitype/StillImage" />
        <dc:title></dc:title>
      </cc:Work>
    </rdf:RDF>
  </metadata>
  <defs
     id="defs1923" />
  <sodipodi:namedview
     inkscape:window-height="873"
     inkscape:window-width="765"
     inkscape:pageshadow="2"
     inkscape:pageopacity="1.0"
     guidetolerance="10.0"
     gridtolerance="10.0"
     objecttolerance="10.0"
     borderopacity="1.0"
     bordercolor="#666666"
     pagecolor="#000000"
     id="base"
     showguides="true"
     inkscape:guide-bbox="true"
     inkscape:zoom="1.295328"
     inkscape:cx="236.6196"
     inkscape:cy="236.6196"
     inkscape:window-x="769"
     inkscape:window-y="0"
     inkscape:current-layer="svg1920"
     width="473.24px"
     height="473.239px"
     showgrid="false"
     inkscape:window-maximized="0" />

  <!-- FIRE -->
  <a xlink:href="blog">
  <g
     id="fire"
     transform="translate(-36.707309,-36.468398)"
     inkscape:label="#g34004">
    <path
       inkscape:connector-curvature="0"
       sodipodi:nodetypes="ccccc"
       id="rect1929"
       d="m 195.38414,61.18398 154.3995,0 -8.59094,19.95928 -137.5774,0 -8.23116,-19.95928 z"
       style="fill:#888888;fill-opacity:1;fill-rule:nonzero;stroke:#888888;stroke-width:2;stroke-linecap:butt;stroke-linejoin:miter;stroke-miterlimit:4;stroke-opacity:1;stroke-dasharray:none" />
    <g
       transform="matrix(2,0,0,2,414.9798,-66.3153)"
       id="g13458">
      <path
         inkscape:connector-curvature="0"
         style="fill:#888888;fill-opacity:1;fill-rule:nonzero;stroke:#888888;stroke-width:1;stroke-linecap:butt;stroke-linejoin:miter;stroke-miterlimit:4;stroke-opacity:1;stroke-dasharray:none"
         d="m -102.64956,80.813527 27.51516,-0.04187 -0.0242,10.1728 -23.07441,0 -4.41655,-10.13093 z"
         id="path7251"
         sodipodi:nodetypes="ccccc" />
      <path
         inkscape:connector-curvature="0"
         style="fill:#888888;fill-opacity:1;fill-rule:nonzero;stroke:#888888;stroke-width:1;stroke-linecap:butt;stroke-linejoin:miter;stroke-miterlimit:4;stroke-opacity:1;stroke-dasharray:none"
         d="m -39.74639,80.817927 -27.39016,-0.04187 0.0242,10.1728 23.07441,0 4.29155,-10.13093 z"
         id="path10798"
         sodipodi:nodetypes="ccccc" />
    </g>
    <path
       inkscape:connector-curvature="0"
       sodipodi:nodetypes="ccccc"
       id="path12570"
       d="m 225.16132,131.23192 94.84514,0 -8.91574,20.52678 -77.4824,0 -8.447,-20.52678 z"
       style="fill:#888888;fill-opacity:1;fill-rule:nonzero;stroke:#888888;stroke-width:2;stroke-linecap:butt;stroke-linejoin:miter;stroke-miterlimit:4;stroke-opacity:1;stroke-dasharray:none" />
  </g>
  </a>

<!-- WIND -->

  <g
     id="wind"
     transform="matrix(2,0,0,2,553.31559,-628.8325)"
     inkscape:label="#g25248">
    <path
       inkscape:connector-curvature="0"
       sodipodi:nodetypes="ccccc"
       id="path19680"
       d="m -261.04407,384.78595 54.58846,-54.58847 4.01933,10.09402 -48.64097,48.64096 -9.96682,-4.14651 z"
       style="fill:#888888;fill-opacity:1;fill-rule:nonzero;stroke:#888888;stroke-width:1;stroke-linecap:butt;stroke-linejoin:miter;stroke-miterlimit:4;stroke-opacity:1;stroke-dasharray:none" />
    <g
       transform="matrix(0.707107,-0.707107,0.707107,0.707107,-497.1187,439.898)"
       id="g19690">
      <g
         transform="translate(-11.125,0.125)"
         id="g19692">
        <path
           inkscape:connector-curvature="0"
           sodipodi:nodetypes="ccccc"
           id="path19694"
           d="m 232.19323,162.71031 19.36354,0 -0.0174,10.57937 -14.91551,0 -4.43065,-10.57937 z"
           style="fill:#888888;fill-opacity:1;fill-rule:nonzero;stroke:#888888;stroke-width:1;stroke-linecap:butt;stroke-linejoin:miter;stroke-miterlimit:4;stroke-opacity:1;stroke-dasharray:none" />
        <path
           inkscape:connector-curvature="0"
           sodipodi:nodetypes="ccccc"
           id="path19696"
           d="m 279.05677,162.83531 -19.36354,0 0.0174,10.57937 14.91551,0 4.43065,-10.57937 z"
           style="fill:#888888;fill-opacity:1;fill-rule:nonzero;stroke:#888888;stroke-width:1;stroke-linecap:butt;stroke-linejoin:miter;stroke-miterlimit:4;stroke-opacity:1;stroke-dasharray:none" />
      </g>
    </g>
    <path
       inkscape:connector-curvature="0"
       sodipodi:nodetypes="ccccc"
       id="path19698"
       d="m -243.57752,391.54037 43.96472,-43.78795 4.07773,10.00136 -37.96614,37.96614 -10.07631,-4.17955 z"
       style="fill:#888888;fill-opacity:1;fill-rule:nonzero;stroke:#888888;stroke-width:1;stroke-linecap:butt;stroke-linejoin:miter;stroke-miterlimit:4;stroke-opacity:1;stroke-dasharray:none" />
  </g>

<!-- THUNDER -->

  <g
     id="thunder"
     transform="matrix(-2,0,0,2,-80.076409,-628.8325)"
     inkscape:label="#g25220">
    <g
       transform="matrix(0,1,-1,0,111.2199,177.6819)"
       id="g19700">
      <path
         inkscape:connector-curvature="0"
         style="fill:#888888;fill-opacity:1;fill-rule:nonzero;stroke:#888888;stroke-width:1;stroke-linecap:butt;stroke-linejoin:miter;stroke-miterlimit:4;stroke-opacity:1;stroke-dasharray:none"
         d="m 216.82691,162.80702 34.69975,0 -0.17047,9.97964 -30.4137,0 -4.11558,-9.97964 z"
         id="path19702"
         sodipodi:nodetypes="ccccc" />
      <path
         inkscape:connector-curvature="0"
         style="fill:#888888;fill-opacity:1;fill-rule:nonzero;stroke:#888888;stroke-width:1;stroke-linecap:butt;stroke-linejoin:miter;stroke-miterlimit:4;stroke-opacity:1;stroke-dasharray:none"
         d="m 294.34988,162.63518 -34.69975,0 0.17047,9.97964 30.4137,0 4.11558,-9.97964 z"
         id="path19704"
         sodipodi:nodetypes="ccccc" />
    </g>
    <g
       transform="matrix(0,1,-1,0,11.871,504.4683)"
       id="g19708">
      <path
         inkscape:connector-curvature="0"
         style="fill:#888888;fill-opacity:1;fill-rule:nonzero;stroke:#888888;stroke-width:1;stroke-linecap:butt;stroke-linejoin:miter;stroke-miterlimit:4;stroke-opacity:1;stroke-dasharray:none"
         d="m -102.64956,80.813527 27.51516,-0.04187 -0.0242,10.1728 -23.07441,0 -4.41655,-10.13093 z"
         id="path19710"
         sodipodi:nodetypes="ccccc" />
      <path
         inkscape:connector-curvature="0"
         style="fill:#888888;fill-opacity:1;fill-rule:nonzero;stroke:#888888;stroke-width:1;stroke-linecap:butt;stroke-linejoin:miter;stroke-miterlimit:4;stroke-opacity:1;stroke-dasharray:none"
         d="m -39.74639,80.817927 -27.39016,-0.04187 0.0242,10.1728 23.07441,0 4.29155,-10.13093 z"
         id="path19712"
         sodipodi:nodetypes="ccccc" />
    </g>
    <path
       inkscape:connector-curvature="0"
       sodipodi:nodetypes="ccccc"
       id="path19714"
       d="m -86.90256,409.55903 0,47.42256 -10.26339,-4.45787 0,-38.74119 10.26339,-4.2235 z"
       style="fill:#888888;fill-opacity:1;fill-rule:nonzero;stroke:#888888;stroke-width:1;stroke-linecap:butt;stroke-linejoin:miter;stroke-miterlimit:4;stroke-opacity:1;stroke-dasharray:none" />
  </g>

  <!-- MOUNTAIN -->

  <g
     id="mountain"
     transform="matrix(2,0,0,2,553.31559,-628.8325)"
     inkscape:label="#g25195">
    <path
       inkscape:connector-curvature="0"
       sodipodi:nodetypes="ccccc"
       id="path19716"
       d="m -206.06096,533.89948 -54.58846,-54.58847 10.09403,-4.0193 48.64096,48.64094 -4.14653,9.96683 z"
       style="fill:#888888;fill-opacity:1;fill-rule:nonzero;stroke:#888888;stroke-width:1;stroke-linecap:butt;stroke-linejoin:miter;stroke-miterlimit:4;stroke-opacity:1;stroke-dasharray:none" />
    <g
       transform="matrix(-0.707107,-0.707107,0.707107,-0.707107,-328.7777,501.3385)"
       id="g19718">
      <path
         inkscape:connector-curvature="0"
         style="fill:#888888;fill-opacity:1;fill-rule:nonzero;stroke:#888888;stroke-width:1;stroke-linecap:butt;stroke-linejoin:miter;stroke-miterlimit:4;stroke-opacity:1;stroke-dasharray:none"
         d="m -102.64956,80.813527 27.51516,-0.04187 -0.0242,10.1728 -23.07441,0 -4.41655,-10.13093 z"
         id="path19720"
         sodipodi:nodetypes="ccccc" />
      <path
         inkscape:connector-curvature="0"
         style="fill:#888888;fill-opacity:1;fill-rule:nonzero;stroke:#888888;stroke-width:1;stroke-linecap:butt;stroke-linejoin:miter;stroke-miterlimit:4;stroke-opacity:1;stroke-dasharray:none"
         d="m -39.74639,80.817927 -27.39016,-0.04187 0.0242,10.1728 23.07441,0 4.29155,-10.13093 z"
         id="path19722"
         sodipodi:nodetypes="ccccc" />
    </g>
    <g
       transform="matrix(-0.707107,-0.707107,0.707107,-0.707107,-151.1326,770.1578)"
       id="g19731">
      <g
         transform="translate(-11.125,0.125)"
         id="g19733">
        <path
           inkscape:connector-curvature="0"
           sodipodi:nodetypes="ccccc"
           id="path19735"
           d="m 232.19323,162.71031 19.36354,0 -0.0174,10.57937 -14.91551,0 -4.43065,-10.57937 z"
           style="fill:#888888;fill-opacity:1;fill-rule:nonzero;stroke:#888888;stroke-width:1;stroke-linecap:butt;stroke-linejoin:miter;stroke-miterlimit:4;stroke-opacity:1;stroke-dasharray:none" />
        <path
           inkscape:connector-curvature="0"
           sodipodi:nodetypes="ccccc"
           id="path19737"
           d="m 279.05677,162.83531 -19.36354,0 0.0174,10.57937 14.91551,0 4.43065,-10.57937 z"
           style="fill:#888888;fill-opacity:1;fill-rule:nonzero;stroke:#888888;stroke-width:1;stroke-linecap:butt;stroke-linejoin:miter;stroke-miterlimit:4;stroke-opacity:1;stroke-dasharray:none" />
      </g>
    </g>
  </g>

  <!-- WATER -->

  <g
     id="water"
     transform="matrix(2,0,0,2,553.31559,-628.8325)"
     inkscape:label="#g25205">
    <g
       transform="matrix(1,0,0,-1,-403.2195,666.4342)"
       id="g19753">
      <g
         transform="translate(-11.125,0.125)"
         id="g19755">
        <path
           inkscape:connector-curvature="0"
           sodipodi:nodetypes="ccccc"
           id="path19757"
           d="m 232.19323,162.71031 19.36354,0 -0.0174,10.57937 -14.91551,0 -4.43065,-10.57937 z"
           style="fill:#888888;fill-opacity:1;fill-rule:nonzero;stroke:#888888;stroke-width:1;stroke-linecap:butt;stroke-linejoin:miter;stroke-miterlimit:4;stroke-opacity:1;stroke-dasharray:none" />
        <path
           inkscape:connector-curvature="0"
           sodipodi:nodetypes="ccccc"
           id="path19759"
           d="m 279.05677,162.83531 -19.36354,0 0.0174,10.57937 14.91551,0 4.43065,-10.57937 z"
           style="fill:#888888;fill-opacity:1;fill-rule:nonzero;stroke:#888888;stroke-width:1;stroke-linecap:butt;stroke-linejoin:miter;stroke-miterlimit:4;stroke-opacity:1;stroke-dasharray:none" />
      </g>
    </g>
    <g
       transform="matrix(1,0,0,-1,-414.3079,701.313)"
       id="g19761">
      <path
         inkscape:connector-curvature="0"
         style="fill:#888888;fill-opacity:1;fill-rule:nonzero;stroke:#888888;stroke-width:1;stroke-linecap:butt;stroke-linejoin:miter;stroke-miterlimit:4;stroke-opacity:1;stroke-dasharray:none"
         d="m 216.82691,162.80702 34.69975,0 -0.17047,9.97964 -30.4137,0 -4.11558,-9.97964 z"
         id="path19763"
         sodipodi:nodetypes="ccccc" />
      <path
         inkscape:connector-curvature="0"
         style="fill:#888888;fill-opacity:1;fill-rule:nonzero;stroke:#888888;stroke-width:1;stroke-linecap:butt;stroke-linejoin:miter;stroke-miterlimit:4;stroke-opacity:1;stroke-dasharray:none"
         d="m 294.34988,162.63518 -34.69975,0 0.17047,9.97964 30.4137,0 4.11558,-9.97964 z"
         id="path19765"
         sodipodi:nodetypes="ccccc" />
    </g>
    <path
       inkscape:connector-curvature="0"
       sodipodi:nodetypes="ccccc"
       id="path19767"
       d="m -189.74477,521.31812 62.05053,-0.125 -4.18865,-9.95542 -53.69224,0 -4.16964,10.08042 z"
       style="fill:#888888;fill-opacity:1;fill-rule:nonzero;stroke:#888888;stroke-width:1;stroke-linecap:butt;stroke-linejoin:miter;stroke-miterlimit:4;stroke-opacity:1;stroke-dasharray:none" />
  </g>

  <!-- SKY -->

  <g
     id="sky"
     transform="matrix(2,0,0,2,553.31559,-628.8325)"
     inkscape:label="#g25215">
    <path
       inkscape:connector-curvature="0"
       sodipodi:nodetypes="ccccc"
       id="path19781"
       d="m -56.150316,480.50277 -54.588464,54.58847 -4.01932,-10.09403 48.640965,-48.64096 9.966819,4.14652 z"
       style="fill:#888888;fill-opacity:1;fill-rule:nonzero;stroke:#888888;stroke-width:1;stroke-linecap:butt;stroke-linejoin:miter;stroke-miterlimit:4;stroke-opacity:1;stroke-dasharray:none" />
    <path
       inkscape:connector-curvature="0"
       sodipodi:nodetypes="ccccc"
       id="path19783"
       d="m -91.443826,466.26491 -33.532824,33.53282 -4.10512,-10.4095 27.39416,-27.39416 10.243784,4.27084 z"
       style="fill:#888888;fill-opacity:1;fill-rule:nonzero;stroke:#888888;stroke-width:1;stroke-linecap:butt;stroke-linejoin:miter;stroke-miterlimit:4;stroke-opacity:1;stroke-dasharray:none" />
    <path
       inkscape:connector-curvature="0"
       sodipodi:nodetypes="ccccc"
       id="path19785"
       d="m -73.703903,473.6613 -43.964727,43.78796 -4.07773,-10.00136 37.96615,-37.96616 10.076307,4.17956 z"
       style="fill:#888888;fill-opacity:1;fill-rule:nonzero;stroke:#888888;stroke-width:1;stroke-linecap:butt;stroke-linejoin:miter;stroke-miterlimit:4;stroke-opacity:1;stroke-dasharray:none" />
  </g>

  <!-- LAKE -->

  <g
     id="lake"
     transform="matrix(-2,0,0,2,-80.076409,-628.8325)"
     inkscape:label="#g25188">
    <path
       inkscape:connector-curvature="0"
       sodipodi:nodetypes="ccccc"
       id="path19808"
       d="m -230.14704,456.98159 0,-47.42257 10.26339,4.45787 0,38.7412 -10.26339,4.2235 z"
       style="fill:#888888;fill-opacity:1;fill-rule:nonzero;stroke:#888888;stroke-width:1;stroke-linecap:butt;stroke-linejoin:miter;stroke-miterlimit:4;stroke-opacity:1;stroke-dasharray:none" />
    <g
       transform="matrix(0,-1,1,0,-427.9159,688.8587)"
       id="g19810">
      <path
         inkscape:connector-curvature="0"
         style="fill:#888888;fill-opacity:1;fill-rule:nonzero;stroke:#888888;stroke-width:1;stroke-linecap:butt;stroke-linejoin:miter;stroke-miterlimit:4;stroke-opacity:1;stroke-dasharray:none"
         d="m 216.82691,162.80702 34.69975,0 -0.17047,9.97964 -30.4137,0 -4.11558,-9.97964 z"
         id="path19812"
         sodipodi:nodetypes="ccccc" />
      <path
         inkscape:connector-curvature="0"
         style="fill:#888888;fill-opacity:1;fill-rule:nonzero;stroke:#888888;stroke-width:1;stroke-linecap:butt;stroke-linejoin:miter;stroke-miterlimit:4;stroke-opacity:1;stroke-dasharray:none"
         d="m 294.34988,162.63518 -34.69975,0 0.17047,9.97964 30.4137,0 4.11558,-9.97964 z"
         id="path19814"
         sodipodi:nodetypes="ccccc" />
    </g>
    <path
       inkscape:connector-curvature="0"
       sodipodi:nodetypes="ccccc"
       id="path19816"
       d="m -247.92109,464.29558 0.125,-62.05053 9.95542,4.18865 0,53.69224 -10.08042,4.16964 z"
       style="fill:#888888;fill-opacity:1;fill-rule:nonzero;stroke:#888888;stroke-width:1;stroke-linecap:butt;stroke-linejoin:miter;stroke-miterlimit:4;stroke-opacity:1;stroke-dasharray:none" />
  </g>

  <!-- EARTH -->

  <g
     id="earth"
     transform="matrix(2,0,0,2,553.31559,-628.8325)"
     inkscape:label="#g25229">
    <g
       transform="matrix(0.707107,0.707107,-0.707107,0.707107,11.4016,362.5375)"
       id="g19842">
      <path
         inkscape:connector-curvature="0"
         style="fill:#888888;fill-opacity:1;fill-rule:nonzero;stroke:#888888;stroke-width:1;stroke-linecap:butt;stroke-linejoin:miter;stroke-miterlimit:4;stroke-opacity:1;stroke-dasharray:none"
         d="m -102.64956,80.813527 27.51516,-0.04187 -0.0242,10.1728 -23.07441,0 -4.41655,-10.13093 z"
         id="path19844"
         sodipodi:nodetypes="ccccc" />
      <path
         inkscape:connector-curvature="0"
         style="fill:#888888;fill-opacity:1;fill-rule:nonzero;stroke:#888888;stroke-width:1;stroke-linecap:butt;stroke-linejoin:miter;stroke-miterlimit:4;stroke-opacity:1;stroke-dasharray:none"
         d="m -39.74639,80.817927 -27.39016,-0.04187 0.0242,10.1728 23.07441,0 4.29155,-10.13093 z"
         id="path19846"
         sodipodi:nodetypes="ccccc" />
    </g>
    <g
       transform="matrix(0.707107,0.707107,-0.707107,0.707107,-166.2433,93.71809)"
       id="g19848">
      <g
         transform="translate(-11.125,0.125)"
         id="g19850">
        <path
           inkscape:connector-curvature="0"
           sodipodi:nodetypes="ccccc"
           id="path19852"
           d="m 232.19323,162.71031 19.36354,0 -0.0174,10.57937 -14.91551,0 -4.43065,-10.57937 z"
           style="fill:#888888;fill-opacity:1;fill-rule:nonzero;stroke:#888888;stroke-width:1;stroke-linecap:butt;stroke-linejoin:miter;stroke-miterlimit:4;stroke-opacity:1;stroke-dasharray:none" />
        <path
           inkscape:connector-curvature="0"
           sodipodi:nodetypes="ccccc"
           id="path19854"
           d="m 279.05677,162.83531 -19.36354,0 0.0174,10.57937 14.91551,0 4.43065,-10.57937 z"
           style="fill:#888888;fill-opacity:1;fill-rule:nonzero;stroke:#888888;stroke-width:1;stroke-linecap:butt;stroke-linejoin:miter;stroke-miterlimit:4;stroke-opacity:1;stroke-dasharray:none" />
      </g>
    </g>


    <g
       transform="matrix(0.707107,0.707107,-0.707107,0.707107,-149.671,61.46441)"
       id="g19856">
      <path
         inkscape:connector-curvature="0"
         style="fill:#888888;fill-opacity:1;fill-rule:nonzero;stroke:#888888;stroke-width:1;stroke-linecap:butt;stroke-linejoin:miter;stroke-miterlimit:4;stroke-opacity:1;stroke-dasharray:none"
         d="m 216.82691,162.80702 34.69975,0 -0.17047,9.97964 -30.4137,0 -4.11558,-9.97964 z"
         id="path19858"
         sodipodi:nodetypes="ccccc" />
      <path
         inkscape:connector-curvature="0"
         style="fill:#888888;fill-opacity:1;fill-rule:nonzero;stroke:#888888;stroke-width:1;stroke-linecap:butt;stroke-linejoin:miter;stroke-miterlimit:4;stroke-opacity:1;stroke-dasharray:none"
         d="m 294.34988,162.63518 -34.69975,0 0.17047,9.97964 30.4137,0 4.11558,-9.97964 z"
         id="path19860"
         sodipodi:nodetypes="ccccc" />
    </g>
  </g>

  <!-- TAEGUK -->

  <path
     inkscape:connector-curvature="0"
     style="fill:#ffffff;fill-opacity:1;fill-rule:evenodd;stroke:#888888;stroke-width:8.3820734;stroke-linecap:butt;stroke-linejoin:miter;stroke-miterlimit:4;stroke-opacity:1;stroke-dasharray:none"
     d="m 219.12945,318.64242 c -48.81666,-8.7821 -80.00935,-66.00338 -60.9247,-111.79757 16.11592,-46.77373 77.12391,-68.96251 119.50094,-43.35973 43.77674,22.87287 56.73913,86.31964 25.26416,124.44913 -19.13528,25.15117 -52.9617,37.6643 -83.8404,30.70817 z"
     id="taeguk"
     inkscape:label="#path19862" />
  <path
     inkscape:connector-curvature="0"
     style="fill:#888888;fill-opacity:1;fill-rule:evenodd;stroke:none"
     d="m 236.68007,155.88782 c -44.16818,0 -80.03125,35.86307 -80.03125,80.03125 0,-22.08408 17.94715,-40.00001 40.03125,-40 21.99006,0 39.84828,17.76421 40,39.71875 6.5e-4,0.0939 0,0.18723 0,0.28125 0.15172,21.95453 18.00994,39.71875 40,39.71875 21.99,0 39.84818,-17.7643 40,-39.71875 2.9e-4,-0.0418 -1.6e-4,-0.0832 0,-0.125 -8e-5,-0.0523 1.8e-4,-0.10402 0,-0.15625 -0.15229,-44.03859 -35.92591,-79.75 -80,-79.75 z"
     id="path25184" />
  <path
     sodipodi:type="arc"
     style="fill:#888888;fill-opacity:1;fill-rule:evenodd;stroke:none"
     id="path25318"
     sodipodi:cx="-12.551146"
     sodipodi:cy="390.97903"
     sodipodi:rx="33.057243"
     sodipodi:ry="33.057243"
     d="m 20.506098,390.97903 a 33.057243,33.057243 0 1 1 -66.114487,0 33.057243,33.057243 0 1 1 66.114487,0 z"
     transform="matrix(0.302561,0,0,-0.302561,200.64179,354.6882)" />
  <path
     sodipodi:type="arc"
     style="fill:#ffffff;fill-opacity:1;fill-rule:evenodd;stroke:none"
     id="path25320"
     sodipodi:cx="-12.551146"
     sodipodi:cy="390.97903"
     sodipodi:rx="33.057243"
     sodipodi:ry="33.057243"
     d="m 20.506098,390.97903 a 33.057243,33.057243 0 1 1 -66.114487,0 33.057243,33.057243 0 1 1 66.114487,0 z"
     transform="matrix(0.302561,0,0,-0.302561,280.65669,354.6882)" />
  <path
     sodipodi:type="star"
     style="fill:none;stroke:#888888;stroke-width:5;stroke-linecap:butt;stroke-linejoin:miter;stroke-miterlimit:4;stroke-opacity:1;stroke-dasharray:none"
     id="path27591"
     sodipodi:sides="8"
     sodipodi:cx="-252"
     sodipodi:cy="84.807556"
     sodipodi:r1="166.94011"
     sodipodi:r2="154.23254"
     sodipodi:arg1="0.38050638"
     sodipodi:arg2="0.77320546"
     inkscape:flatsided="true"
     inkscape:rounded="0"
     inkscape:randomized="0"
     d="M -97,146.80756 -186.23907,238.24973 -314,239.80756 -405.44217,150.56849 -407,22.807556 -317.76093,-68.634616 -190,-70.192444 l 91.442172,89.23907 z"
     transform="matrix(1.509552,0.01830835,-0.01830835,1.509552,618.57939,113.2117)" />
</svg>
